solid OpenSCAD_Model
  facet normal 0 0 1
    outer loop
      vertex -3.53553 10.6066 5
      vertex 3.53553 -10.6066 5
      vertex 10.6066 -3.53553 5
    endloop
  endfacet
  facet normal 0 0 1
    outer loop
      vertex 3.53553 -10.6066 5
      vertex -3.53553 10.6066 5
      vertex -10.6066 3.53553 5
    endloop
  endfacet
  facet normal 0 0 -1
    outer loop
      vertex 3.53553 -10.6066 -5
      vertex -3.53553 10.6066 -5
      vertex 10.6066 -3.53553 -5
    endloop
  endfacet
  facet normal 0 -0 -1
    outer loop
      vertex -3.53553 10.6066 -5
      vertex 3.53553 -10.6066 -5
      vertex -10.6066 3.53553 -5
    endloop
  endfacet
  facet normal 0.707107 -0.707107 0
    outer loop
      vertex 3.53553 -10.6066 5
      vertex 10.6066 -3.53553 -5
      vertex 10.6066 -3.53553 5
    endloop
  endfacet
  facet normal 0.707107 -0.707107 0
    outer loop
      vertex 10.6066 -3.53553 -5
      vertex 3.53553 -10.6066 5
      vertex 3.53553 -10.6066 -5
    endloop
  endfacet
  facet normal 0.707107 0.707107 0
    outer loop
      vertex 10.6066 -3.53553 5
      vertex -3.53553 10.6066 -5
      vertex -3.53553 10.6066 5
    endloop
  endfacet
  facet normal 0.707107 0.707107 0
    outer loop
      vertex -3.53553 10.6066 -5
      vertex 10.6066 -3.53553 5
      vertex 10.6066 -3.53553 -5
    endloop
  endfacet
  facet normal -0.707107 0.707107 0
    outer loop
      vertex -10.6066 3.53553 -5
      vertex -3.53553 10.6066 5
      vertex -3.53553 10.6066 -5
    endloop
  endfacet
  facet normal -0.707107 0.707107 0
    outer loop
      vertex -3.53553 10.6066 5
      vertex -10.6066 3.53553 -5
      vertex -10.6066 3.53553 5
    endloop
  endfacet
  facet normal -0.707107 -0.707107 0
    outer loop
      vertex 3.53553 -10.6066 -5
      vertex -10.6066 3.53553 5
      vertex -10.6066 3.53553 -5
    endloop
  endfacet
  facet normal -0.707107 -0.707107 0
    outer loop
      vertex -10.6066 3.53553 5
      vertex 3.53553 -10.6066 -5
      vertex 3.53553 -10.6066 5
    endloop
  endfacet
endsolid OpenSCAD_Model
